<mxfile host="app.diagrams.net" modified="2024-07-09T06:39:43.153Z" agent="Mozilla/5.0 (Windows NT 10.0; Win64; x64) AppleWebKit/537.36 (KHTML, like Gecko) Chrome/126.0.0.0 Safari/537.36" etag="-BNoaMcEfXkZSLdYR0pP" version="24.6.4" type="device">
  <diagram name="第 1 页" id="aSQQA5UP4O9_zDEL5qQI">
    <mxGraphModel dx="2048" dy="618" grid="1" gridSize="10" guides="1" tooltips="1" connect="1" arrows="1" fold="1" page="1" pageScale="1" pageWidth="827" pageHeight="1169" math="0" shadow="0">
      <root>
        <mxCell id="0" />
        <mxCell id="1" parent="0" />
        <mxCell id="ZYTivv0_CZAl483lTYmN-1" value="运营人员" style="shape=umlActor;verticalLabelPosition=bottom;verticalAlign=top;html=1;" parent="1" vertex="1">
          <mxGeometry x="-391.5" y="219" width="47" height="80" as="geometry" />
        </mxCell>
        <mxCell id="ZYTivv0_CZAl483lTYmN-4" value="" style="html=1;whiteSpace=wrap;movable=0;resizable=0;rotatable=0;deletable=0;editable=0;locked=1;connectable=0;" parent="1" vertex="1">
          <mxGeometry x="-220" y="44" width="920" height="610" as="geometry" />
        </mxCell>
        <mxCell id="ZYTivv0_CZAl483lTYmN-8" value="Xlink开发人员" style="shape=umlActor;verticalLabelPosition=bottom;verticalAlign=top;html=1;" parent="1" vertex="1">
          <mxGeometry x="-391.5" y="985" width="30" height="60" as="geometry" />
        </mxCell>
        <mxCell id="ZYTivv0_CZAl483lTYmN-119" style="edgeStyle=orthogonalEdgeStyle;rounded=0;orthogonalLoop=1;jettySize=auto;html=1;exitX=1;exitY=0.5;exitDx=0;exitDy=0;entryX=0;entryY=0.5;entryDx=0;entryDy=0;" parent="1" source="ZYTivv0_CZAl483lTYmN-15" target="ZYTivv0_CZAl483lTYmN-29" edge="1">
          <mxGeometry relative="1" as="geometry" />
        </mxCell>
        <mxCell id="ZYTivv0_CZAl483lTYmN-120" value="调用" style="edgeLabel;html=1;align=center;verticalAlign=middle;resizable=0;points=[];" parent="ZYTivv0_CZAl483lTYmN-119" vertex="1" connectable="0">
          <mxGeometry x="-0.2" y="3" relative="1" as="geometry">
            <mxPoint as="offset" />
          </mxGeometry>
        </mxCell>
        <mxCell id="ZYTivv0_CZAl483lTYmN-169" style="edgeStyle=orthogonalEdgeStyle;shape=connector;rounded=0;orthogonalLoop=1;jettySize=auto;html=1;exitX=1;exitY=1;exitDx=0;exitDy=0;entryX=0;entryY=0.5;entryDx=0;entryDy=0;strokeColor=default;align=center;verticalAlign=middle;fontFamily=Helvetica;fontSize=11;fontColor=default;labelBorderColor=default;labelBackgroundColor=default;resizable=1;endArrow=classic;" parent="1" source="ZYTivv0_CZAl483lTYmN-15" target="ZYTivv0_CZAl483lTYmN-59" edge="1">
          <mxGeometry relative="1" as="geometry" />
        </mxCell>
        <mxCell id="ZYTivv0_CZAl483lTYmN-15" value="前端UI日志界面" style="ellipse;whiteSpace=wrap;html=1;" parent="1" vertex="1">
          <mxGeometry x="-220" y="210" width="140" height="70" as="geometry" />
        </mxCell>
        <mxCell id="ZYTivv0_CZAl483lTYmN-28" value="模型文件&lt;span style=&quot;color: rgba(0, 0, 0, 0); font-family: monospace; font-size: 0px; text-align: start; text-wrap: nowrap;&quot;&gt;%3CmxGraphModel%3E%3Croot%3E%3CmxCell%20id%3D%220%22%2F%3E%3CmxCell%20id%3D%221%22%20parent%3D%220%22%2F%3E%3CmxCell%20id%3D%222%22%20value%3D%22UI%E7%95%8C%E9%9D%A2%22%20style%3D%22ellipse%3BwhiteSpace%3Dwrap%3Bhtml%3D1%3B%22%20vertex%3D%221%22%20parent%3D%221%22%3E%3CmxGeometry%20x%3D%22110%22%20y%3D%2260%22%20width%3D%22140%22%20height%3D%2270%22%20as%3D%22geometry%22%2F%3E%3C%2FmxCell%3E%3C%2Froot%3E%3C%2FmxGraphModel%3E&lt;/span&gt;" style="ellipse;whiteSpace=wrap;html=1;" parent="1" vertex="1">
          <mxGeometry x="140" y="680" width="140" height="70" as="geometry" />
        </mxCell>
        <mxCell id="ZYTivv0_CZAl483lTYmN-29" value="fbi_extends.py" style="ellipse;whiteSpace=wrap;html=1;" parent="1" vertex="1">
          <mxGeometry x="-40" y="205" width="140" height="80" as="geometry" />
        </mxCell>
        <mxCell id="ZYTivv0_CZAl483lTYmN-30" value="数据标注" style="ellipse;whiteSpace=wrap;html=1;" parent="1" vertex="1">
          <mxGeometry x="140" y="210" width="140" height="70" as="geometry" />
        </mxCell>
        <mxCell id="ZYTivv0_CZAl483lTYmN-36" value="操作" style="endArrow=none;html=1;endSize=12;startArrow=none;startSize=14;startFill=0;edgeStyle=orthogonalEdgeStyle;align=center;verticalAlign=bottom;endFill=0;rounded=0;entryX=1;entryY=0.5;entryDx=0;entryDy=0;exitX=0;exitY=0.5;exitDx=0;exitDy=0;" parent="1" source="ZYTivv0_CZAl483lTYmN-30" target="ZYTivv0_CZAl483lTYmN-29" edge="1">
          <mxGeometry y="3" relative="1" as="geometry">
            <mxPoint x="60" y="90" as="sourcePoint" />
            <mxPoint x="-30" y="390" as="targetPoint" />
          </mxGeometry>
        </mxCell>
        <mxCell id="ZYTivv0_CZAl483lTYmN-37" value="增加模型" style="ellipse;whiteSpace=wrap;html=1;" parent="1" vertex="1">
          <mxGeometry x="370" y="170" width="140" height="70" as="geometry" />
        </mxCell>
        <mxCell id="ZYTivv0_CZAl483lTYmN-38" value="删除模型" style="ellipse;whiteSpace=wrap;html=1;" parent="1" vertex="1">
          <mxGeometry x="344" y="250" width="140" height="70" as="geometry" />
        </mxCell>
        <mxCell id="ZYTivv0_CZAl483lTYmN-39" value="修改模型" style="ellipse;whiteSpace=wrap;html=1;" parent="1" vertex="1">
          <mxGeometry x="310" y="330" width="140" height="70" as="geometry" />
        </mxCell>
        <mxCell id="ZYTivv0_CZAl483lTYmN-40" value="搜索模型" style="ellipse;whiteSpace=wrap;html=1;" parent="1" vertex="1">
          <mxGeometry x="274" y="420" width="140" height="70" as="geometry" />
        </mxCell>
        <mxCell id="ZYTivv0_CZAl483lTYmN-41" value="&amp;lt;&amp;lt;include&amp;gt;&amp;gt;" style="html=1;verticalAlign=bottom;endArrow=open;dashed=1;endSize=8;curved=0;rounded=0;entryX=0;entryY=0.5;entryDx=0;entryDy=0;exitX=0.976;exitY=0.376;exitDx=0;exitDy=0;exitPerimeter=0;" parent="1" source="ZYTivv0_CZAl483lTYmN-30" target="ZYTivv0_CZAl483lTYmN-37" edge="1">
          <mxGeometry relative="1" as="geometry">
            <mxPoint x="70.005" y="2.5" as="sourcePoint" />
            <mxPoint x="198.13" y="207.5" as="targetPoint" />
          </mxGeometry>
        </mxCell>
        <mxCell id="ZYTivv0_CZAl483lTYmN-46" value="数据标注阶段" style="text;align=center;fontStyle=1;verticalAlign=middle;spacingLeft=3;spacingRight=3;strokeColor=none;rotatable=0;points=[[0,0.5],[1,0.5]];portConstraint=eastwest;html=1;" parent="1" vertex="1">
          <mxGeometry x="160" y="44" width="80" height="26" as="geometry" />
        </mxCell>
        <mxCell id="ZYTivv0_CZAl483lTYmN-58" value="模型导入" style="ellipse;whiteSpace=wrap;html=1;" parent="1" vertex="1">
          <mxGeometry x="-40" y="410" width="140" height="70" as="geometry" />
        </mxCell>
        <mxCell id="ZYTivv0_CZAl483lTYmN-59" value="模型导出" style="ellipse;whiteSpace=wrap;html=1;" parent="1" vertex="1">
          <mxGeometry x="-40" y="314" width="140" height="70" as="geometry" />
        </mxCell>
        <mxCell id="ZYTivv0_CZAl483lTYmN-67" value="&amp;lt;&amp;lt;include&amp;gt;&amp;gt;" style="html=1;verticalAlign=bottom;endArrow=open;dashed=1;endSize=8;curved=0;rounded=0;entryX=0;entryY=0.5;entryDx=0;entryDy=0;exitX=1;exitY=0.5;exitDx=0;exitDy=0;" parent="1" source="ZYTivv0_CZAl483lTYmN-30" target="ZYTivv0_CZAl483lTYmN-38" edge="1">
          <mxGeometry relative="1" as="geometry">
            <mxPoint x="197" y="246" as="sourcePoint" />
            <mxPoint x="260" y="115" as="targetPoint" />
          </mxGeometry>
        </mxCell>
        <mxCell id="ZYTivv0_CZAl483lTYmN-68" value="&amp;lt;&amp;lt;include&amp;gt;&amp;gt;" style="html=1;verticalAlign=bottom;endArrow=open;dashed=1;endSize=8;curved=0;rounded=0;entryX=0;entryY=0.5;entryDx=0;entryDy=0;exitX=0.962;exitY=0.676;exitDx=0;exitDy=0;exitPerimeter=0;" parent="1" source="ZYTivv0_CZAl483lTYmN-30" target="ZYTivv0_CZAl483lTYmN-39" edge="1">
          <mxGeometry relative="1" as="geometry">
            <mxPoint x="197.16463414634154" y="248.5" as="sourcePoint" />
            <mxPoint x="170" y="329.5" as="targetPoint" />
          </mxGeometry>
        </mxCell>
        <mxCell id="ZYTivv0_CZAl483lTYmN-69" value="&amp;lt;&amp;lt;include&amp;gt;&amp;gt;" style="html=1;verticalAlign=bottom;endArrow=open;dashed=1;endSize=8;curved=0;rounded=0;entryX=0;entryY=0.5;entryDx=0;entryDy=0;exitX=1;exitY=1;exitDx=0;exitDy=0;" parent="1" source="ZYTivv0_CZAl483lTYmN-30" target="ZYTivv0_CZAl483lTYmN-40" edge="1">
          <mxGeometry relative="1" as="geometry">
            <mxPoint x="197.16463414634154" y="340" as="sourcePoint" />
            <mxPoint x="250" y="396.5" as="targetPoint" />
          </mxGeometry>
        </mxCell>
        <mxCell id="ZYTivv0_CZAl483lTYmN-71" value="更新" style="endArrow=none;html=1;endSize=12;startArrow=none;startSize=14;startFill=0;edgeStyle=orthogonalEdgeStyle;align=center;verticalAlign=bottom;endFill=0;rounded=0;exitX=0.5;exitY=1;exitDx=0;exitDy=0;" parent="1" source="ZYTivv0_CZAl483lTYmN-30" target="ZYTivv0_CZAl483lTYmN-28" edge="1">
          <mxGeometry y="3" relative="1" as="geometry">
            <mxPoint x="120" y="359" as="sourcePoint" />
            <mxPoint x="10" y="359" as="targetPoint" />
          </mxGeometry>
        </mxCell>
        <mxCell id="ZYTivv0_CZAl483lTYmN-79" value="智能化文本识别流程" style="text;align=center;fontStyle=1;verticalAlign=middle;spacingLeft=3;spacingRight=3;strokeColor=none;rotatable=0;points=[[0,0.5],[1,0.5]];portConstraint=eastwest;html=1;" parent="1" vertex="1">
          <mxGeometry x="700" y="10" width="80" height="26" as="geometry" />
        </mxCell>
        <mxCell id="ZYTivv0_CZAl483lTYmN-82" value="&lt;span style=&quot;color: rgba(0, 0, 0, 0); font-family: monospace; font-size: 0px; text-align: start; text-wrap: nowrap;&quot;&gt;%3CmxGraphModel%3E%3Croot%3E%3CmxCell%20id%3D%220%22%2F%3E%3CmxCell%20id%3D%221%22%20parent%3D%220%22%2F%3E%3CmxCell%20id%3D%222%22%20value%3D%22%E6%95%B0%E6%8D%AE%E6%A0%87%E6%B3%A8%E9%98%B6%E6%AE%B5%22%20style%3D%22text%3Balign%3Dcenter%3BfontStyle%3D1%3BverticalAlign%3Dmiddle%3BspacingLeft%3D3%3BspacingRight%3D3%3BstrokeColor%3Dnone%3Brotatable%3D0%3Bpoints%3D%5B%5B0%2C0.5%5D%2C%5B1%2C0.5%5D%5D%3BportConstraint%3Deastwest%3Bhtml%3D1%3B%22%20vertex%3D%221%22%20parent%3D%221%22%3E%3CmxGeometry%20x%3D%22160%22%20y%3D%2244%22%20width%3D%2280%22%20height%3D%2226%22%20as%3D%22geometry%22%2F%3E%3C%2FmxCell%3E%3C%2Froot%3E%3C%2FmxGraphModel%3E&lt;/span&gt;" style="html=1;whiteSpace=wrap;movable=0;resizable=0;rotatable=0;deletable=0;editable=0;locked=1;connectable=0;" parent="1" vertex="1">
          <mxGeometry x="-220" y="890" width="920" height="280" as="geometry" />
        </mxCell>
        <mxCell id="ZYTivv0_CZAl483lTYmN-83" value="数据识别阶段" style="text;align=center;fontStyle=1;verticalAlign=middle;spacingLeft=3;spacingRight=3;strokeColor=none;rotatable=0;points=[[0,0.5],[1,0.5]];portConstraint=eastwest;html=1;" parent="1" vertex="1">
          <mxGeometry x="270" y="910" width="80" height="26" as="geometry" />
        </mxCell>
        <mxCell id="ZYTivv0_CZAl483lTYmN-84" value="&lt;b&gt;CKH日志信息&lt;/b&gt;" style="ellipse;whiteSpace=wrap;html=1;" parent="1" vertex="1">
          <mxGeometry x="-220" y="680" width="140" height="70" as="geometry" />
        </mxCell>
        <mxCell id="ZYTivv0_CZAl483lTYmN-107" style="edgeStyle=orthogonalEdgeStyle;rounded=0;orthogonalLoop=1;jettySize=auto;html=1;exitX=1;exitY=0.5;exitDx=0;exitDy=0;entryX=0;entryY=0;entryDx=0;entryDy=0;" parent="1" source="ZYTivv0_CZAl483lTYmN-85" target="ZYTivv0_CZAl483lTYmN-86" edge="1">
          <mxGeometry relative="1" as="geometry" />
        </mxCell>
        <mxCell id="ZYTivv0_CZAl483lTYmN-108" value="源数据" style="edgeLabel;html=1;align=center;verticalAlign=middle;resizable=0;points=[];" parent="ZYTivv0_CZAl483lTYmN-107" vertex="1" connectable="0">
          <mxGeometry x="-0.308" y="-4" relative="1" as="geometry">
            <mxPoint as="offset" />
          </mxGeometry>
        </mxCell>
        <mxCell id="ZYTivv0_CZAl483lTYmN-85" value="流处理Event事件" style="ellipse;whiteSpace=wrap;html=1;" parent="1" vertex="1">
          <mxGeometry x="-220" y="910" width="140" height="70" as="geometry" />
        </mxCell>
        <mxCell id="ZYTivv0_CZAl483lTYmN-114" style="edgeStyle=orthogonalEdgeStyle;rounded=0;orthogonalLoop=1;jettySize=auto;html=1;exitX=1;exitY=0.5;exitDx=0;exitDy=0;entryX=0;entryY=0.5;entryDx=0;entryDy=0;" parent="1" source="ZYTivv0_CZAl483lTYmN-86" target="ZYTivv0_CZAl483lTYmN-113" edge="1">
          <mxGeometry relative="1" as="geometry" />
        </mxCell>
        <mxCell id="ZYTivv0_CZAl483lTYmN-115" value="调用" style="edgeLabel;html=1;align=center;verticalAlign=middle;resizable=0;points=[];" parent="ZYTivv0_CZAl483lTYmN-114" vertex="1" connectable="0">
          <mxGeometry x="-0.14" relative="1" as="geometry">
            <mxPoint as="offset" />
          </mxGeometry>
        </mxCell>
        <mxCell id="ZYTivv0_CZAl483lTYmN-86" value="Xlink文件" style="ellipse;whiteSpace=wrap;html=1;" parent="1" vertex="1">
          <mxGeometry x="50" y="995" width="140" height="70" as="geometry" />
        </mxCell>
        <mxCell id="ZYTivv0_CZAl483lTYmN-90" value="" style="endArrow=none;html=1;endSize=12;startArrow=none;startSize=14;startFill=0;edgeStyle=orthogonalEdgeStyle;align=center;verticalAlign=bottom;endFill=0;rounded=0;entryX=0;entryY=0.5;entryDx=0;entryDy=0;" parent="1" target="ZYTivv0_CZAl483lTYmN-86" edge="1">
          <mxGeometry y="3" relative="1" as="geometry">
            <mxPoint x="-361.5" y="1030" as="sourcePoint" />
            <mxPoint x="-201.5" y="1030" as="targetPoint" />
          </mxGeometry>
        </mxCell>
        <mxCell id="ZYTivv0_CZAl483lTYmN-95" value="创建" style="edgeLabel;html=1;align=center;verticalAlign=middle;resizable=0;points=[];" parent="ZYTivv0_CZAl483lTYmN-90" vertex="1" connectable="0">
          <mxGeometry x="-0.0842" y="-2" relative="1" as="geometry">
            <mxPoint x="1" as="offset" />
          </mxGeometry>
        </mxCell>
        <mxCell id="ZYTivv0_CZAl483lTYmN-123" value="" style="edgeStyle=orthogonalEdgeStyle;rounded=0;orthogonalLoop=1;jettySize=auto;html=1;" parent="1" source="ZYTivv0_CZAl483lTYmN-113" target="ZYTivv0_CZAl483lTYmN-122" edge="1">
          <mxGeometry relative="1" as="geometry" />
        </mxCell>
        <mxCell id="ZYTivv0_CZAl483lTYmN-124" value="识别" style="edgeLabel;html=1;align=center;verticalAlign=middle;resizable=0;points=[];" parent="ZYTivv0_CZAl483lTYmN-123" vertex="1" connectable="0">
          <mxGeometry x="-0.1667" y="4" relative="1" as="geometry">
            <mxPoint as="offset" />
          </mxGeometry>
        </mxCell>
        <mxCell id="ZYTivv0_CZAl483lTYmN-113" value="intell_analy_new.py" style="ellipse;whiteSpace=wrap;html=1;" parent="1" vertex="1">
          <mxGeometry x="270" y="995" width="140" height="70" as="geometry" />
        </mxCell>
        <mxCell id="ZYTivv0_CZAl483lTYmN-121" value="&lt;span style=&quot;color: rgba(0, 0, 0, 0); font-family: monospace; font-size: 0px; text-align: start; text-wrap: nowrap;&quot;&gt;%3CmxGraphModel%3E%3Croot%3E%3CmxCell%20id%3D%220%22%2F%3E%3CmxCell%20id%3D%221%22%20parent%3D%220%22%2F%3E%3CmxCell%20id%3D%222%22%20value%3D%22%E6%95%B0%E6%8D%AE%E6%A0%87%E6%B3%A8%E9%98%B6%E6%AE%B5%22%20style%3D%22text%3Balign%3Dcenter%3BfontStyle%3D1%3BverticalAlign%3Dmiddle%3BspacingLeft%3D3%3BspacingRight%3D3%3BstrokeColor%3Dnone%3Brotatable%3D0%3Bpoints%3D%5B%5B0%2C0.5%5D%2C%5B1%2C0.5%5D%5D%3BportConstraint%3Deastwest%3Bhtml%3D1%3B%22%20vertex%3D%221%22%20parent%3D%221%22%3E%3CmxGeometry%20x%3D%22160%22%20y%3D%2244%22%20width%3D%2280%22%20height%3D%2226%22%20as%3D%22geometry%22%2F%3E%3C%2FmxCell%3E%3C%2Froot%3E%3C%2FmxGraphModel%3E&lt;/span&gt;" style="html=1;whiteSpace=wrap;movable=0;resizable=0;rotatable=0;deletable=0;editable=0;locked=1;connectable=0;" parent="1" vertex="1">
          <mxGeometry x="800" y="40" width="430" height="1130" as="geometry" />
        </mxCell>
        <mxCell id="ZYTivv0_CZAl483lTYmN-134" style="edgeStyle=orthogonalEdgeStyle;shape=connector;rounded=0;orthogonalLoop=1;jettySize=auto;html=1;exitX=1;exitY=1;exitDx=0;exitDy=0;entryX=0;entryY=0;entryDx=0;entryDy=0;strokeColor=default;align=center;verticalAlign=middle;fontFamily=Helvetica;fontSize=11;fontColor=default;labelBorderColor=default;labelBackgroundColor=default;resizable=1;endArrow=classic;" parent="1" source="ZYTivv0_CZAl483lTYmN-122" target="ZYTivv0_CZAl483lTYmN-133" edge="1">
          <mxGeometry relative="1" as="geometry" />
        </mxCell>
        <mxCell id="ZYTivv0_CZAl483lTYmN-135" value="存储" style="edgeLabel;html=1;align=center;verticalAlign=middle;resizable=0;points=[];fontFamily=Helvetica;fontSize=11;fontColor=default;labelBorderColor=default;labelBackgroundColor=default;" parent="ZYTivv0_CZAl483lTYmN-134" vertex="1" connectable="0">
          <mxGeometry x="-0.3725" y="1" relative="1" as="geometry">
            <mxPoint as="offset" />
          </mxGeometry>
        </mxCell>
        <mxCell id="ZYTivv0_CZAl483lTYmN-122" value="数据识别结果" style="ellipse;whiteSpace=wrap;html=1;" parent="1" vertex="1">
          <mxGeometry x="450" y="995" width="140" height="65" as="geometry" />
        </mxCell>
        <mxCell id="ZYTivv0_CZAl483lTYmN-131" style="edgeStyle=orthogonalEdgeStyle;rounded=0;orthogonalLoop=1;jettySize=auto;html=1;exitX=1;exitY=1;exitDx=0;exitDy=0;exitPerimeter=0;entryX=0.5;entryY=1;entryDx=0;entryDy=0;labelBorderColor=default;textShadow=1;movable=1;resizable=1;rotatable=1;deletable=1;editable=1;locked=0;connectable=1;" parent="1" source="ZYTivv0_CZAl483lTYmN-8" target="ZYTivv0_CZAl483lTYmN-122" edge="1">
          <mxGeometry relative="1" as="geometry" />
        </mxCell>
        <mxCell id="ZYTivv0_CZAl483lTYmN-132" value="处理" style="edgeLabel;html=1;align=center;verticalAlign=middle;resizable=0;points=[];fontFamily=Helvetica;fontSize=11;fontColor=default;labelBorderColor=default;labelBackgroundColor=default;" parent="ZYTivv0_CZAl483lTYmN-131" vertex="1" connectable="0">
          <mxGeometry x="0.0084" y="-1" relative="1" as="geometry">
            <mxPoint as="offset" />
          </mxGeometry>
        </mxCell>
        <mxCell id="ZYTivv0_CZAl483lTYmN-133" value="存入ckh数据库" style="ellipse;whiteSpace=wrap;html=1;" parent="1" vertex="1">
          <mxGeometry x="550" y="1100" width="140" height="65" as="geometry" />
        </mxCell>
        <mxCell id="ZYTivv0_CZAl483lTYmN-136" value="后台配置项" style="text;align=center;fontStyle=1;verticalAlign=middle;spacingLeft=3;spacingRight=3;strokeColor=none;rotatable=0;points=[[0,0.5],[1,0.5]];portConstraint=eastwest;html=1;" parent="1" vertex="1">
          <mxGeometry x="975" y="44" width="80" height="26" as="geometry" />
        </mxCell>
        <mxCell id="ZYTivv0_CZAl483lTYmN-139" style="edgeStyle=orthogonalEdgeStyle;shape=connector;rounded=0;orthogonalLoop=1;jettySize=auto;html=1;exitX=0;exitY=0.3333333333333333;exitDx=0;exitDy=0;exitPerimeter=0;entryX=1;entryY=0.5;entryDx=0;entryDy=0;strokeColor=default;align=center;verticalAlign=middle;fontFamily=Helvetica;fontSize=11;fontColor=default;labelBorderColor=default;labelBackgroundColor=default;resizable=1;endArrow=classic;" parent="1" source="ZYTivv0_CZAl483lTYmN-137" target="ZYTivv0_CZAl483lTYmN-138" edge="1">
          <mxGeometry relative="1" as="geometry" />
        </mxCell>
        <mxCell id="ZYTivv0_CZAl483lTYmN-140" value="选择" style="edgeLabel;html=1;align=center;verticalAlign=middle;resizable=0;points=[];fontFamily=Helvetica;fontSize=11;fontColor=default;labelBorderColor=default;labelBackgroundColor=default;" parent="ZYTivv0_CZAl483lTYmN-139" vertex="1" connectable="0">
          <mxGeometry x="0.3411" y="-1" relative="1" as="geometry">
            <mxPoint as="offset" />
          </mxGeometry>
        </mxCell>
        <mxCell id="ZYTivv0_CZAl483lTYmN-137" value="开发人员" style="shape=umlActor;verticalLabelPosition=bottom;verticalAlign=top;html=1;" parent="1" vertex="1">
          <mxGeometry x="1320" y="89" width="70" height="140" as="geometry" />
        </mxCell>
        <mxCell id="ZYTivv0_CZAl483lTYmN-142" value="" style="edgeStyle=orthogonalEdgeStyle;shape=connector;rounded=0;orthogonalLoop=1;jettySize=auto;html=1;strokeColor=default;align=center;verticalAlign=middle;fontFamily=Helvetica;fontSize=11;fontColor=default;labelBorderColor=default;labelBackgroundColor=default;resizable=1;endArrow=classic;" parent="1" source="ZYTivv0_CZAl483lTYmN-138" target="ZYTivv0_CZAl483lTYmN-141" edge="1">
          <mxGeometry relative="1" as="geometry" />
        </mxCell>
        <mxCell id="ZYTivv0_CZAl483lTYmN-138" value="智能面板-查询分析" style="ellipse;whiteSpace=wrap;html=1;" parent="1" vertex="1">
          <mxGeometry x="1080" y="100" width="140" height="70" as="geometry" />
        </mxCell>
        <mxCell id="ZYTivv0_CZAl483lTYmN-141" value="AI识别" style="ellipse;whiteSpace=wrap;html=1;" parent="1" vertex="1">
          <mxGeometry x="1080" y="250" width="140" height="70" as="geometry" />
        </mxCell>
        <mxCell id="ZYTivv0_CZAl483lTYmN-143" value="基本参数" style="ellipse;whiteSpace=wrap;html=1;" parent="1" vertex="1">
          <mxGeometry x="950" y="330" width="140" height="70" as="geometry" />
        </mxCell>
        <mxCell id="ZYTivv0_CZAl483lTYmN-144" value="操作行为" style="ellipse;whiteSpace=wrap;html=1;" parent="1" vertex="1">
          <mxGeometry x="950" y="410" width="140" height="70" as="geometry" />
        </mxCell>
        <mxCell id="ZYTivv0_CZAl483lTYmN-145" value="命名配置" style="ellipse;whiteSpace=wrap;html=1;" parent="1" vertex="1">
          <mxGeometry x="950" y="515" width="140" height="70" as="geometry" />
        </mxCell>
        <mxCell id="ZYTivv0_CZAl483lTYmN-146" value="数据类型配置" style="ellipse;whiteSpace=wrap;html=1;" parent="1" vertex="1">
          <mxGeometry x="950" y="610" width="140" height="70" as="geometry" />
        </mxCell>
        <mxCell id="ZYTivv0_CZAl483lTYmN-147" value="标签名称" style="ellipse;whiteSpace=wrap;html=1;" parent="1" vertex="1">
          <mxGeometry x="950" y="710" width="140" height="70" as="geometry" />
        </mxCell>
        <mxCell id="ZYTivv0_CZAl483lTYmN-148" value="&amp;lt;&amp;lt;include&amp;gt;&amp;gt;" style="html=1;verticalAlign=bottom;labelBackgroundColor=none;endArrow=open;endFill=0;dashed=1;rounded=0;strokeColor=default;align=center;fontFamily=Helvetica;fontSize=11;fontColor=default;labelBorderColor=default;resizable=1;edgeStyle=orthogonalEdgeStyle;exitX=0;exitY=1;exitDx=0;exitDy=0;entryX=1;entryY=0.5;entryDx=0;entryDy=0;" parent="1" source="ZYTivv0_CZAl483lTYmN-141" target="ZYTivv0_CZAl483lTYmN-143" edge="1">
          <mxGeometry x="0.0038" width="160" relative="1" as="geometry">
            <mxPoint x="940" y="267.5" as="sourcePoint" />
            <mxPoint x="870" y="302.5" as="targetPoint" />
            <mxPoint as="offset" />
          </mxGeometry>
        </mxCell>
        <mxCell id="ZYTivv0_CZAl483lTYmN-152" value="&amp;lt;&amp;lt;include&amp;gt;&amp;gt;" style="html=1;verticalAlign=bottom;labelBackgroundColor=none;endArrow=open;endFill=0;dashed=1;rounded=0;strokeColor=default;align=center;fontFamily=Helvetica;fontSize=11;fontColor=default;labelBorderColor=default;resizable=1;edgeStyle=orthogonalEdgeStyle;exitX=0.5;exitY=1;exitDx=0;exitDy=0;entryX=1;entryY=0.5;entryDx=0;entryDy=0;" parent="1" source="ZYTivv0_CZAl483lTYmN-141" target="ZYTivv0_CZAl483lTYmN-144" edge="1">
          <mxGeometry x="0.0038" width="160" relative="1" as="geometry">
            <mxPoint x="1025.5" y="375" as="sourcePoint" />
            <mxPoint x="1004.5" y="420" as="targetPoint" />
            <mxPoint as="offset" />
          </mxGeometry>
        </mxCell>
        <mxCell id="ZYTivv0_CZAl483lTYmN-153" value="&amp;lt;&amp;lt;include&amp;gt;&amp;gt;" style="html=1;verticalAlign=bottom;labelBackgroundColor=none;endArrow=open;endFill=0;dashed=1;rounded=0;strokeColor=default;align=center;fontFamily=Helvetica;fontSize=11;fontColor=default;labelBorderColor=default;resizable=1;edgeStyle=orthogonalEdgeStyle;entryX=1;entryY=0.5;entryDx=0;entryDy=0;exitX=0.5;exitY=1;exitDx=0;exitDy=0;" parent="1" source="ZYTivv0_CZAl483lTYmN-141" target="ZYTivv0_CZAl483lTYmN-145" edge="1">
          <mxGeometry x="0.3103" y="10" width="160" relative="1" as="geometry">
            <mxPoint x="1070" y="390" as="sourcePoint" />
            <mxPoint x="985" y="570" as="targetPoint" />
            <mxPoint as="offset" />
          </mxGeometry>
        </mxCell>
        <mxCell id="ZYTivv0_CZAl483lTYmN-154" value="&amp;lt;&amp;lt;include&amp;gt;&amp;gt;" style="html=1;verticalAlign=bottom;labelBackgroundColor=none;endArrow=open;endFill=0;dashed=1;rounded=0;strokeColor=default;align=center;fontFamily=Helvetica;fontSize=11;fontColor=default;labelBorderColor=default;resizable=1;edgeStyle=orthogonalEdgeStyle;entryX=1;entryY=0.5;entryDx=0;entryDy=0;exitX=0.5;exitY=1;exitDx=0;exitDy=0;" parent="1" source="ZYTivv0_CZAl483lTYmN-141" target="ZYTivv0_CZAl483lTYmN-146" edge="1">
          <mxGeometry x="0.4545" y="10" width="160" relative="1" as="geometry">
            <mxPoint x="1140" y="365" as="sourcePoint" />
            <mxPoint x="1070" y="680" as="targetPoint" />
            <mxPoint as="offset" />
          </mxGeometry>
        </mxCell>
        <mxCell id="ZYTivv0_CZAl483lTYmN-155" value="&amp;lt;&amp;lt;include&amp;gt;&amp;gt;" style="html=1;verticalAlign=bottom;labelBackgroundColor=none;endArrow=open;endFill=0;dashed=1;rounded=0;strokeColor=default;align=center;fontFamily=Helvetica;fontSize=11;fontColor=default;labelBorderColor=default;resizable=1;edgeStyle=orthogonalEdgeStyle;entryX=1;entryY=0.5;entryDx=0;entryDy=0;exitX=0.5;exitY=1;exitDx=0;exitDy=0;" parent="1" source="ZYTivv0_CZAl483lTYmN-141" target="ZYTivv0_CZAl483lTYmN-147" edge="1">
          <mxGeometry x="0.5258" y="10" width="160" relative="1" as="geometry">
            <mxPoint x="1160" y="355" as="sourcePoint" />
            <mxPoint x="1090" y="670" as="targetPoint" />
            <mxPoint as="offset" />
          </mxGeometry>
        </mxCell>
        <mxCell id="ZYTivv0_CZAl483lTYmN-170" style="edgeStyle=orthogonalEdgeStyle;shape=connector;rounded=0;orthogonalLoop=1;jettySize=auto;html=1;exitX=1;exitY=1;exitDx=0;exitDy=0;entryX=-0.005;entryY=0.61;entryDx=0;entryDy=0;entryPerimeter=0;strokeColor=default;align=center;verticalAlign=middle;fontFamily=Helvetica;fontSize=11;fontColor=default;labelBorderColor=default;labelBackgroundColor=default;resizable=1;endArrow=classic;" parent="1" source="ZYTivv0_CZAl483lTYmN-15" target="ZYTivv0_CZAl483lTYmN-58" edge="1">
          <mxGeometry relative="1" as="geometry" />
        </mxCell>
        <mxCell id="ZYTivv0_CZAl483lTYmN-171" style="edgeStyle=orthogonalEdgeStyle;shape=connector;rounded=0;orthogonalLoop=1;jettySize=auto;html=1;exitX=0.5;exitY=1;exitDx=0;exitDy=0;strokeColor=default;align=center;verticalAlign=middle;fontFamily=Helvetica;fontSize=11;fontColor=default;labelBorderColor=default;labelBackgroundColor=default;resizable=1;endArrow=classic;" parent="1" source="ZYTivv0_CZAl483lTYmN-28" target="ZYTivv0_CZAl483lTYmN-86" edge="1">
          <mxGeometry relative="1" as="geometry" />
        </mxCell>
        <mxCell id="ZYTivv0_CZAl483lTYmN-172" value="载入模型" style="edgeLabel;html=1;align=center;verticalAlign=middle;resizable=0;points=[];fontFamily=Helvetica;fontSize=11;fontColor=default;labelBorderColor=default;labelBackgroundColor=default;" parent="ZYTivv0_CZAl483lTYmN-171" vertex="1" connectable="0">
          <mxGeometry x="-0.4468" y="-1" relative="1" as="geometry">
            <mxPoint as="offset" />
          </mxGeometry>
        </mxCell>
        <mxCell id="ZYTivv0_CZAl483lTYmN-176" value="" style="endArrow=block;startArrow=none;endFill=0;startFill=0;endSize=8;html=1;verticalAlign=bottom;dashed=1;labelBackgroundColor=none;rounded=0;strokeColor=default;align=center;fontFamily=Helvetica;fontSize=11;fontColor=default;labelBorderColor=default;resizable=1;edgeStyle=orthogonalEdgeStyle;exitX=0.5;exitY=0;exitDx=0;exitDy=0;entryX=0;entryY=0;entryDx=0;entryDy=0;strokeWidth=1.5;" parent="1" source="ZYTivv0_CZAl483lTYmN-15" target="ZYTivv0_CZAl483lTYmN-141" edge="1">
          <mxGeometry width="160" relative="1" as="geometry">
            <mxPoint x="-40" y="140" as="sourcePoint" />
            <mxPoint x="120" y="140" as="targetPoint" />
            <Array as="points">
              <mxPoint x="-150" y="140" />
              <mxPoint x="1050" y="140" />
              <mxPoint x="1050" y="250" />
              <mxPoint x="1101" y="250" />
            </Array>
          </mxGeometry>
        </mxCell>
        <mxCell id="ZYTivv0_CZAl483lTYmN-193" value="依赖于" style="edgeLabel;html=1;align=center;verticalAlign=middle;resizable=0;points=[];fontFamily=Helvetica;fontSize=11;fontColor=default;labelBorderColor=default;labelBackgroundColor=default;" parent="ZYTivv0_CZAl483lTYmN-176" vertex="1" connectable="0">
          <mxGeometry x="-0.0403" y="3" relative="1" as="geometry">
            <mxPoint as="offset" />
          </mxGeometry>
        </mxCell>
        <mxCell id="ZYTivv0_CZAl483lTYmN-177" value="" style="endArrow=block;startArrow=none;endFill=0;startFill=0;endSize=8;html=1;verticalAlign=bottom;dashed=1;labelBackgroundColor=none;rounded=0;strokeColor=default;align=center;fontFamily=Helvetica;fontSize=11;fontColor=default;labelBorderColor=default;resizable=1;edgeStyle=orthogonalEdgeStyle;exitX=0.5;exitY=1;exitDx=0;exitDy=0;entryX=0.5;entryY=0;entryDx=0;entryDy=0;strokeWidth=1.5;" parent="1" source="ZYTivv0_CZAl483lTYmN-15" target="ZYTivv0_CZAl483lTYmN-84" edge="1">
          <mxGeometry width="160" relative="1" as="geometry">
            <mxPoint x="-170" y="540" as="sourcePoint" />
            <mxPoint x="-10" y="540" as="targetPoint" />
          </mxGeometry>
        </mxCell>
        <mxCell id="ZYTivv0_CZAl483lTYmN-194" value="依赖于" style="edgeLabel;html=1;align=center;verticalAlign=middle;resizable=0;points=[];fontFamily=Helvetica;fontSize=11;fontColor=default;labelBorderColor=default;labelBackgroundColor=default;" parent="ZYTivv0_CZAl483lTYmN-177" vertex="1" connectable="0">
          <mxGeometry x="-0.14" y="-1" relative="1" as="geometry">
            <mxPoint as="offset" />
          </mxGeometry>
        </mxCell>
        <mxCell id="ZYTivv0_CZAl483lTYmN-179" value="" style="endArrow=block;startArrow=none;endFill=0;startFill=0;endSize=8;html=1;verticalAlign=bottom;dashed=1;labelBackgroundColor=none;rounded=0;strokeColor=default;align=center;fontFamily=Helvetica;fontSize=11;fontColor=default;labelBorderColor=default;resizable=1;edgeStyle=orthogonalEdgeStyle;exitX=1;exitY=0.5;exitDx=0;exitDy=0;entryX=0.229;entryY=0.143;entryDx=0;entryDy=0;entryPerimeter=0;strokeWidth=1.5;" parent="1" source="ZYTivv0_CZAl483lTYmN-58" target="ZYTivv0_CZAl483lTYmN-28" edge="1">
          <mxGeometry width="160" relative="1" as="geometry">
            <mxPoint x="100" y="400" as="sourcePoint" />
            <mxPoint x="172" y="680" as="targetPoint" />
          </mxGeometry>
        </mxCell>
        <mxCell id="ZYTivv0_CZAl483lTYmN-180" value="" style="endArrow=block;startArrow=none;endFill=0;startFill=0;endSize=8;html=1;verticalAlign=bottom;dashed=1;labelBackgroundColor=none;rounded=0;strokeColor=default;align=center;fontFamily=Helvetica;fontSize=11;fontColor=default;labelBorderColor=default;resizable=1;exitX=1;exitY=0.5;exitDx=0;exitDy=0;strokeWidth=1.5;edgeStyle=orthogonalEdgeStyle;" parent="1" edge="1">
          <mxGeometry width="160" relative="1" as="geometry">
            <mxPoint x="100" y="350" as="sourcePoint" />
            <mxPoint x="172" y="450" as="targetPoint" />
          </mxGeometry>
        </mxCell>
        <mxCell id="ZYTivv0_CZAl483lTYmN-181" value="" style="endArrow=block;startArrow=none;endFill=0;startFill=0;endSize=8;html=1;verticalAlign=bottom;dashed=1;labelBackgroundColor=none;rounded=0;strokeColor=default;align=center;fontFamily=Helvetica;fontSize=11;fontColor=default;labelBorderColor=default;resizable=1;edgeStyle=orthogonalEdgeStyle;exitX=0.5;exitY=0;exitDx=0;exitDy=0;entryX=0.5;entryY=1;entryDx=0;entryDy=0;strokeWidth=1.5;" parent="1" source="ZYTivv0_CZAl483lTYmN-85" target="ZYTivv0_CZAl483lTYmN-84" edge="1">
          <mxGeometry width="160" relative="1" as="geometry">
            <mxPoint x="60" y="820" as="sourcePoint" />
            <mxPoint x="220" y="820" as="targetPoint" />
          </mxGeometry>
        </mxCell>
        <mxCell id="ZYTivv0_CZAl483lTYmN-182" value="分发" style="edgeLabel;html=1;align=center;verticalAlign=middle;resizable=0;points=[];fontFamily=Helvetica;fontSize=11;fontColor=default;labelBorderColor=default;labelBackgroundColor=default;" parent="ZYTivv0_CZAl483lTYmN-181" vertex="1" connectable="0">
          <mxGeometry x="0.1917" y="-3" relative="1" as="geometry">
            <mxPoint as="offset" />
          </mxGeometry>
        </mxCell>
        <mxCell id="ZYTivv0_CZAl483lTYmN-183" value="" style="endArrow=none;html=1;endSize=12;startArrow=none;startSize=14;startFill=0;edgeStyle=orthogonalEdgeStyle;align=center;verticalAlign=bottom;endFill=0;rounded=0;" parent="1" edge="1">
          <mxGeometry y="3" relative="1" as="geometry">
            <mxPoint x="-350" y="244.5" as="sourcePoint" />
            <mxPoint x="-220" y="244.5" as="targetPoint" />
          </mxGeometry>
        </mxCell>
        <mxCell id="ZYTivv0_CZAl483lTYmN-184" value="创建" style="edgeLabel;html=1;align=center;verticalAlign=middle;resizable=0;points=[];" parent="ZYTivv0_CZAl483lTYmN-183" vertex="1" connectable="0">
          <mxGeometry x="-0.0842" y="-2" relative="1" as="geometry">
            <mxPoint x="1" as="offset" />
          </mxGeometry>
        </mxCell>
        <mxCell id="ZYTivv0_CZAl483lTYmN-186" value="Text" style="edgeLabel;html=1;align=center;verticalAlign=middle;resizable=0;points=[];fontFamily=Helvetica;fontSize=11;fontColor=default;labelBorderColor=default;labelBackgroundColor=default;" parent="ZYTivv0_CZAl483lTYmN-183" vertex="1" connectable="0">
          <mxGeometry x="-0.0718" relative="1" as="geometry">
            <mxPoint as="offset" />
          </mxGeometry>
        </mxCell>
        <mxCell id="ZYTivv0_CZAl483lTYmN-187" value="Text" style="edgeLabel;html=1;align=center;verticalAlign=middle;resizable=0;points=[];fontFamily=Helvetica;fontSize=11;fontColor=default;labelBorderColor=default;labelBackgroundColor=default;" parent="ZYTivv0_CZAl483lTYmN-183" vertex="1" connectable="0">
          <mxGeometry x="-0.0872" relative="1" as="geometry">
            <mxPoint as="offset" />
          </mxGeometry>
        </mxCell>
        <mxCell id="ZYTivv0_CZAl483lTYmN-188" value="使用" style="edgeLabel;html=1;align=center;verticalAlign=middle;resizable=0;points=[];fontFamily=Helvetica;fontSize=11;fontColor=default;labelBorderColor=default;labelBackgroundColor=default;" parent="ZYTivv0_CZAl483lTYmN-183" vertex="1" connectable="0">
          <mxGeometry x="-0.0718" y="-2" relative="1" as="geometry">
            <mxPoint y="1" as="offset" />
          </mxGeometry>
        </mxCell>
        <mxCell id="ZYTivv0_CZAl483lTYmN-195" value="" style="endArrow=block;startArrow=none;endFill=0;startFill=0;endSize=8;html=1;verticalAlign=bottom;dashed=1;labelBackgroundColor=none;rounded=0;strokeColor=default;align=center;fontFamily=Helvetica;fontSize=11;fontColor=default;labelBorderColor=default;resizable=1;edgeStyle=orthogonalEdgeStyle;exitX=1;exitY=0.5;exitDx=0;exitDy=0;entryX=0;entryY=0.5;entryDx=0;entryDy=0;strokeWidth=1.5;" parent="1" source="ZYTivv0_CZAl483lTYmN-122" target="ZYTivv0_CZAl483lTYmN-141" edge="1">
          <mxGeometry width="160" relative="1" as="geometry">
            <mxPoint x="730" y="920" as="sourcePoint" />
            <mxPoint x="890" y="920" as="targetPoint" />
            <Array as="points">
              <mxPoint x="750" y="1028" />
              <mxPoint x="750" y="285" />
            </Array>
          </mxGeometry>
        </mxCell>
        <mxCell id="xtCGQyaSQ_5qM_AiuAJN-1" value="&lt;b&gt;xlink流处理结果&lt;/b&gt;" style="ellipse;whiteSpace=wrap;html=1;" vertex="1" parent="1">
          <mxGeometry x="-440" y="680" width="140" height="70" as="geometry" />
        </mxCell>
      </root>
    </mxGraphModel>
  </diagram>
</mxfile>
